<svg width="25" height="26" viewBox="0 0 25 26" fill="none" xmlns="http://www.w3.org/2000/svg">
<path d="M19.7397 15.7368C19.2279 15.2039 18.6105 14.919 17.9563 14.919C17.3073 14.919 16.6846 15.1987 16.1517 15.7316L14.4844 17.3936C14.3472 17.3198 14.21 17.2512 14.0781 17.1826C13.8881 17.0876 13.7087 16.9979 13.5557 16.9029C11.9939 15.911 10.5746 14.6182 9.21324 12.9456C8.55368 12.1119 8.11046 11.4102 7.7886 10.6979C8.22127 10.3021 8.62228 9.89057 9.01273 9.49484C9.16047 9.3471 9.30821 9.19408 9.45595 9.04634C10.564 7.93829 10.564 6.50311 9.45595 5.39506L8.01549 3.9546C7.85192 3.79103 7.68307 3.62218 7.52478 3.45334C7.2082 3.1262 6.87578 2.78851 6.53281 2.47192C6.021 1.96539 5.40894 1.69629 4.76521 1.69629C4.12149 1.69629 3.49887 1.96539 2.97123 2.47192C2.96595 2.4772 2.96595 2.4772 2.96068 2.48248L1.16669 4.29229C0.491313 4.96767 0.106134 5.79079 0.0217117 6.74582C-0.104922 8.28654 0.34885 9.72173 0.697094 10.6609C1.55187 12.9667 2.82877 15.1037 4.73356 17.3936C7.04463 20.1532 9.8253 22.3324 13.0017 23.8678C14.2153 24.4429 15.8351 25.1236 17.645 25.2397C17.7558 25.245 17.8718 25.2502 17.9774 25.2502C19.1962 25.2502 20.2199 24.8123 21.0219 23.9417C21.0271 23.9311 21.0377 23.9259 21.043 23.9153C21.3173 23.5829 21.6339 23.2821 21.9663 22.9603C22.1932 22.7439 22.4254 22.517 22.6523 22.2796C23.1746 21.7361 23.449 21.103 23.449 20.454C23.449 19.7997 23.1694 19.1718 22.6364 18.6442L19.7397 15.7368ZM21.6287 21.2929C21.6234 21.2929 21.6234 21.2982 21.6287 21.2929C21.4229 21.5145 21.2118 21.715 20.9849 21.9366C20.642 22.2638 20.2937 22.6067 19.9666 22.9919C19.4337 23.5618 18.8058 23.8309 17.9826 23.8309C17.9035 23.8309 17.8191 23.8309 17.7399 23.8256C16.1728 23.7253 14.7165 23.1133 13.6243 22.5909C10.6379 21.1452 8.01549 19.0926 5.83633 16.4914C4.03707 14.3228 2.83404 12.3177 2.0373 10.1649C1.5466 8.85112 1.3672 7.82749 1.44635 6.86191C1.49911 6.24456 1.73655 5.73275 2.17449 5.29481L3.97375 3.49555C4.2323 3.25283 4.50667 3.12092 4.77577 3.12092C5.10818 3.12092 5.37728 3.32143 5.54612 3.49027C5.5514 3.49555 5.55668 3.50083 5.56195 3.5061C5.88381 3.80686 6.18985 4.11817 6.51171 4.45058C6.67528 4.61943 6.84412 4.78827 7.01297 4.96239L8.45343 6.40286C9.01273 6.96216 9.01273 7.47925 8.45343 8.03855C8.30042 8.19156 8.15268 8.34458 7.99966 8.49232C7.55644 8.94609 7.13433 9.36821 6.67528 9.77977C6.66473 9.79032 6.65417 9.7956 6.6489 9.80615C6.19512 10.2599 6.27955 10.7031 6.37452 11.0039C6.3798 11.0197 6.38508 11.0356 6.39035 11.0514C6.76498 11.9589 7.29262 12.8137 8.09464 13.8321L8.09991 13.8373C9.5562 15.6313 11.0916 17.0296 12.7854 18.1007C13.0017 18.2379 13.2233 18.3487 13.4344 18.4542C13.6243 18.5492 13.8037 18.6389 13.9567 18.7339C13.9778 18.7444 13.999 18.7602 14.0201 18.7708C14.1995 18.8605 14.3683 18.9027 14.5424 18.9027C14.9804 18.9027 15.2547 18.6283 15.3444 18.5386L17.149 16.7341C17.3284 16.5547 17.6133 16.3384 17.9457 16.3384C18.2729 16.3384 18.5419 16.5441 18.7055 16.7235C18.7108 16.7288 18.7108 16.7288 18.7161 16.7341L21.6234 19.6414C22.1668 20.1796 22.1669 20.7336 21.6287 21.2929Z" fill="#FEBC30"/>
<path d="M13.4926 6.19724C14.875 6.42941 16.1308 7.08368 17.1333 8.0862C18.1358 9.08872 18.7848 10.3445 19.0223 11.7269C19.0803 12.0752 19.3811 12.3179 19.724 12.3179C19.7662 12.3179 19.8032 12.3126 19.8454 12.3073C20.2358 12.244 20.4944 11.8747 20.4311 11.4842C20.1461 9.81159 19.3547 8.28671 18.1464 7.07841C16.9381 5.87011 15.4132 5.07864 13.7406 4.79372C13.3501 4.7304 12.986 4.98894 12.9174 5.37412C12.8489 5.7593 13.1021 6.13393 13.4926 6.19724Z" fill="#FEBC30"/>
<path d="M24.952 11.278C24.4824 8.52374 23.1844 6.01744 21.1899 4.02295C19.1954 2.02846 16.6891 0.730461 13.9348 0.26086C13.5496 0.192266 13.1855 0.456087 13.117 0.841266C13.0536 1.23172 13.3122 1.59579 13.7026 1.66439C16.1614 2.08122 18.4039 3.24731 20.1874 5.02547C21.9708 6.8089 23.1316 9.05138 23.5484 11.5102C23.6065 11.8584 23.9072 12.1011 24.2502 12.1011C24.2924 12.1011 24.3293 12.0959 24.3716 12.0906C24.7567 12.0326 25.0206 11.6632 24.952 11.278Z" fill="#FEBC30"/>
</svg>
