<svg width="30" height="22" viewBox="0 0 30 22" fill="none" xmlns="http://www.w3.org/2000/svg">
<path d="M27.3633 0H2.63672C1.18582 0 0 1.18935 0 2.65625V18.5938C0 20.0612 1.18658 21.25 2.63672 21.25H27.3633C28.8142 21.25 30 20.0606 30 18.5938V2.65625C30 1.189 28.8136 0 27.3633 0ZM26.9584 1.77083C26.1059 2.63246 16.0925 12.753 15.6811 13.1687C15.3375 13.5159 14.6627 13.5162 14.3189 13.1687L3.0416 1.77083H26.9584ZM1.75781 18.2682V2.98179L9.32022 10.625L1.75781 18.2682ZM3.0416 19.4792L10.5612 11.8792L13.074 14.4189C14.1037 15.4596 15.8967 15.4592 16.9261 14.4189L19.4389 11.8793L26.9584 19.4792H3.0416ZM28.2422 18.2682L20.6798 10.625L28.2422 2.98179V18.2682Z" fill="#FEBC30"/>
</svg>
