<svg width="22" height="25" viewBox="0 0 22 25" fill="none" xmlns="http://www.w3.org/2000/svg">
<path d="M15.16 16.5178C17.8203 12.3434 17.4858 12.8642 17.5625 12.7553C18.5311 11.3892 19.043 9.78135 19.043 8.10547C19.043 3.66113 15.4365 0 10.9863 0C6.55068 0 2.92969 3.65391 2.92969 8.10547C2.92969 9.78027 3.45234 11.4302 4.45264 12.8147L6.8126 16.5179C4.2894 16.9056 0 18.0611 0 20.6055C0 21.533 0.605371 22.8547 3.48936 23.8847C5.50312 24.6039 8.16558 25 10.9863 25C16.261 25 21.9727 23.5121 21.9727 20.6055C21.9727 18.0607 17.6883 16.9064 15.16 16.5178ZM5.67622 12.009C5.66816 11.9964 5.65977 11.9841 5.65098 11.972C4.8186 10.8269 4.39453 9.46978 4.39453 8.10547C4.39453 4.44248 7.34404 1.46484 10.9863 1.46484C14.621 1.46484 17.5781 4.4438 17.5781 8.10547C17.5781 9.47197 17.1621 10.7831 16.3747 11.898C16.3041 11.9911 16.6723 11.4192 10.9863 20.3413L5.67622 12.009ZM10.9863 23.5352C5.2249 23.5352 1.46484 21.8417 1.46484 20.6055C1.46484 19.7746 3.39688 18.4084 7.67812 17.8759L10.3687 22.0978C10.5031 22.3088 10.736 22.4365 10.9863 22.4365C11.2365 22.4365 11.4695 22.3087 11.6039 22.0978L14.2944 17.8759C18.5757 18.4084 20.5078 19.7746 20.5078 20.6055C20.5078 21.8312 16.7816 23.5352 10.9863 23.5352Z" fill="#FEBC30"/>
<path d="M10.9863 4.44336C8.96704 4.44336 7.32422 6.08618 7.32422 8.10547C7.32422 10.1248 8.96704 11.7676 10.9863 11.7676C13.0056 11.7676 14.6484 10.1248 14.6484 8.10547C14.6484 6.08618 13.0056 4.44336 10.9863 4.44336ZM10.9863 10.3027C9.77476 10.3027 8.78906 9.31704 8.78906 8.10547C8.78906 6.8939 9.77476 5.9082 10.9863 5.9082C12.1979 5.9082 13.1836 6.8939 13.1836 8.10547C13.1836 9.31704 12.1979 10.3027 10.9863 10.3027Z" fill="#FEBC30"/>
</svg>
